<svg width="22" height="22" viewBox="0 0 22 22" fill="none" xmlns="http://www.w3.org/2000/svg">
<path d="M9.00749 1.10377C7.60593 0.650058 6.0823 1.28116 5.41205 2.59306L4.60627 4.17023C4.51053 4.35763 4.35812 4.51004 4.17072 4.60578L2.59355 5.41156C1.28165 6.08181 0.650546 7.60544 1.10426 9.007L1.64972 10.692C1.71452 10.8922 1.71452 11.1078 1.64972 11.308L1.10426 12.993C0.650546 14.3946 1.28165 15.9182 2.59355 16.5885L4.17072 17.3942C4.35812 17.49 4.51053 17.6424 4.60627 17.8298L5.41205 19.407C6.0823 20.7189 7.60593 21.35 9.00749 20.8963L10.6925 20.3508C10.8927 20.286 11.1083 20.286 11.3085 20.3508L12.9935 20.8963C14.3951 21.35 15.9187 20.7189 16.589 19.407L17.3947 17.8298C17.4905 17.6424 17.6429 17.49 17.8303 17.3942L19.4075 16.5885C20.7194 15.9182 21.3505 14.3946 20.8968 12.993L20.3513 11.308C20.2865 11.1078 20.2865 10.8922 20.3513 10.692L20.8968 9.007C21.3505 7.60544 20.7194 6.08181 19.4075 5.41156L17.8303 4.60578C17.6429 4.51004 17.4905 4.35763 17.3947 4.17023L16.589 2.59306C15.9187 1.28116 14.3951 0.650058 12.9935 1.10377L11.3085 1.64923C11.1083 1.71403 10.8927 1.71404 10.6925 1.64923L9.00749 1.10377ZM7.19307 3.50299C7.41649 3.06569 7.92437 2.85532 8.39156 3.00656L10.0766 3.55201C10.6772 3.74644 11.3238 3.74644 11.9244 3.55201L13.6095 3.00656C14.0766 2.85532 14.5845 3.06569 14.8079 3.50298L15.6137 5.08016C15.9009 5.64234 16.3582 6.09958 16.9204 6.3868L18.4975 7.19258C18.9348 7.416 19.1452 7.92388 18.994 8.39107L18.4485 10.0761C18.2541 10.6767 18.2541 11.3233 18.4485 11.9239L18.994 13.609C19.1452 14.0761 18.9348 14.584 18.4975 14.8074L16.9204 15.6132C16.3582 15.9004 15.9009 16.3577 15.6137 16.9199L14.8079 18.497C14.5845 18.9343 14.0766 19.1447 13.6095 18.9935L11.9244 18.448C11.3238 18.2536 10.6772 18.2536 10.0766 18.448L8.39156 18.9935C7.92437 19.1447 7.41649 18.9343 7.19307 18.497L6.38729 16.9199C6.10007 16.3577 5.64283 15.9004 5.08065 15.6132L3.50348 14.8074C3.06618 14.584 2.85581 14.0761 3.00705 13.609L3.5525 11.9239C3.74693 11.3233 3.74693 10.6767 3.5525 10.0761L3.00705 8.39107C2.85581 7.92388 3.06618 7.416 3.50348 7.19258L5.08065 6.3868C5.64283 6.09958 6.10007 5.64234 6.38729 5.08016L7.19307 3.50299ZM5.76009 10.7574L10.0027 15L17.0738 7.92897L15.6596 6.51476L10.0027 12.1716L7.17431 9.3431L5.76009 10.7574Z" fill="#0E121B"/>
</svg>
