<svg width="24" height="24" viewBox="0 0 24 24" fill="none" xmlns="http://www.w3.org/2000/svg">
<path d="M6.05975 14.5452L3.51575 17.0916L6.90935 20.4852L20.485 6.9084L17.0914 3.516L14.5438 6.06L16.2418 7.7568L14.5438 9.456L12.847 7.758L11.1502 9.456L12.847 11.1528L11.1502 12.8496L9.45335 11.1528L7.75535 12.8496L9.45335 14.5464L7.75535 16.2444L6.05975 14.544V14.5452ZM17.9398 0.969602L23.0302 6.06C23.2551 6.28504 23.3815 6.5902 23.3815 6.9084C23.3815 7.2266 23.2551 7.53177 23.0302 7.7568L7.75655 23.0304C7.53152 23.2554 7.22635 23.3817 6.90815 23.3817C6.58996 23.3817 6.28479 23.2554 6.05975 23.0304L0.969355 17.94C0.74439 17.715 0.618011 17.4098 0.618011 17.0916C0.618011 16.7734 0.74439 16.4682 0.969355 16.2432L16.243 0.969602C16.468 0.744636 16.7732 0.618258 17.0914 0.618258C17.4095 0.618258 17.7147 0.744636 17.9398 0.969602ZM14.5438 19.6356L16.2418 17.9388L18.9322 20.6304H20.629V18.9336L17.9386 16.242L19.6354 14.5452L22.7998 17.7084V22.8H17.7094L14.545 19.6356H14.5438ZM4.36295 9.4536L0.968155 6.06C0.856583 5.94855 0.768072 5.81621 0.707683 5.67053C0.647294 5.52485 0.616211 5.3687 0.616211 5.211C0.616211 5.0533 0.647294 4.89715 0.707683 4.75147C0.768072 4.6058 0.856583 4.47345 0.968155 4.362L4.36295 0.968401C4.58799 0.743436 4.89316 0.617058 5.21135 0.617058C5.52955 0.617058 5.83472 0.743436 6.05975 0.968401L9.45575 4.362L7.75655 6.06L5.21135 3.5136L3.51455 5.2116L6.05975 7.7556L4.36295 9.4536Z" fill="#0E121B"/>
</svg>
