<svg width="24" height="24" viewBox="0 0 24 24" fill="none" xmlns="http://www.w3.org/2000/svg">
<path d="M8.92746 9.17222L4.47246 13.6272L9.14706 18.3018H10.2001V18.3H11.2549L14.6551 14.8998L8.92746 9.17222ZM10.2001 7.89962L15.9277 13.6272L18.4729 11.0811L12.7453 5.35352L10.2001 7.89962ZM13.8001 18.3H20.1001V20.1H12.0001L8.40186 20.1018L2.56356 14.2635C2.39483 14.0947 2.30005 13.8659 2.30005 13.6272C2.30005 13.3886 2.39483 13.1597 2.56356 12.9909L12.1081 3.44462C12.1916 3.36094 12.2909 3.29456 12.4002 3.24927C12.5094 3.20398 12.6265 3.18066 12.7448 3.18066C12.8631 3.18066 12.9802 3.20398 13.0895 3.24927C13.1987 3.29456 13.298 3.36094 13.3816 3.44462L20.3818 10.4448C20.5505 10.6136 20.6453 10.8425 20.6453 11.0811C20.6453 11.3198 20.5505 11.5486 20.3818 11.7174L13.8001 18.3Z" fill="#D02533"/>
</svg>
