<svg width="239" height="156" viewBox="0 0 239 156" fill="none" xmlns="http://www.w3.org/2000/svg">
<path d="M155.163 0.486835C147.609 0.932266 141.353 2.81298 136.058 6.22796C128.728 10.9545 124.407 17.834 123.234 26.6313C123.071 27.8809 123.021 33.0158 123.171 33.5849L123.259 33.9314H130.251C136.782 33.9314 137.232 33.919 137.294 33.7087C137.332 33.5973 137.531 32.5951 137.744 31.4815C138.218 29.0069 139.005 25.8517 139.517 24.4165C140.828 20.6798 142.776 18.267 145.598 16.8565C148.046 15.6563 150.668 15.0995 155.363 14.8025L156.574 14.7283L156.712 14.0354C156.862 13.2806 156.911 3.01095 156.774 1.35295L156.687 0.400223L156.237 0.424969C155.987 0.43734 155.513 0.46209 155.163 0.486835Z" fill="#C60C30"/>
<path d="M43.5661 33.3249C37.0353 33.7085 31.1914 35.7377 27.0456 39.0413C25.747 40.0806 23.8489 42.0356 22.8874 43.31C17.0809 51.0804 14.8207 62.4265 15.3577 81.1965C15.4326 83.8197 15.5325 87.7296 15.5824 89.8825L15.6574 93.8171H22.7376H29.8178L29.9052 87.5316C29.9426 84.0795 30.0176 77.3609 30.055 72.5972L30.1299 63.936L30.4296 63.1565C30.4296 63.1565 30.7793 61.845 30.8542 61.0531C31.0915 58.7146 31.5285 57.2051 32.5525 55.213C34.7252 50.9814 38.9584 48.1479 44.203 47.4055C45.8637 47.1704 49.0979 47.3313 50.6588 47.7149C53.868 48.5067 56.3405 49.8802 58.4008 52.0083C60.3363 54.0128 61.61 56.574 62.1345 59.457C62.2344 60.0138 62.4467 60.8056 62.609 61.214C62.7838 61.6223 62.9836 62.2657 63.0585 62.6369C63.1459 63.0947 63.2084 67.9202 63.2583 77.4227C63.2958 85.1807 63.3582 92.0478 63.3957 92.6664L63.4706 93.8171H70.4259H77.3938L77.4812 89.7588C77.5311 87.5316 77.6185 84.0671 77.681 82.0627C78.093 69.2936 77.3938 60.7561 75.3708 53.7653C72.3115 43.211 66.0554 36.8141 56.3904 34.3643C52.6443 33.4115 48.1614 33.0403 43.5661 33.3249Z" fill="#C60C30"/>
<path d="M83.4249 33.2633C81.1023 33.5973 80.4655 33.9067 79.9785 34.9707C79.479 36.072 79.4041 37.1237 79.504 42.939L79.5914 48.309L79.8536 48.2224C80.4155 48.0615 87.3459 47.9996 88.8568 48.1481C96.5989 48.9276 100.732 52.0457 102.468 58.4549C102.842 59.8531 103.23 62.1174 103.404 63.9981C103.642 66.4851 103.692 72.1767 103.529 77.6085C103.392 82.6197 103.18 93.8421 103.217 93.9163C103.255 93.9534 115.392 94.3123 116.903 94.3123H117.977L118.089 87.5318C118.339 72.2015 118.152 66.4975 117.203 60.3728C114.505 43.1123 105.827 34.4882 89.9807 33.3127C88.3574 33.2014 84.1367 33.1643 83.4249 33.2633Z" fill="#C60C30"/>
<path d="M153.353 33.3251C142.826 34.1169 135.371 37.5072 130.214 43.8298C128.416 46.0323 126.481 49.2864 125.631 51.5259C124.47 54.6068 123.484 60.0015 122.959 66.2252C122.547 71.0136 122.46 73.612 122.46 79.8975C122.46 86.2944 122.61 89.6228 123.047 93.2605L123.196 94.4978H130.402C134.36 94.4978 137.644 94.4483 137.707 94.3988C137.856 94.2503 137.806 84.1167 137.632 80.7636C136.957 67.2398 137.594 60.8181 140.079 56.0421C142.714 50.9815 147.646 48.3213 155.238 47.8387L156.562 47.7521L156.637 44.5227C156.687 42.7534 156.762 39.4745 156.799 37.235L156.887 33.189L155.775 33.2013C155.164 33.2137 154.077 33.2632 153.353 33.3251Z" fill="#C60C30"/>
<path d="M161.544 48.3703C161.432 66.3114 161.482 67.3878 162.493 71.607C165.116 82.5449 172.795 90.4018 183.759 93.3838C190.889 95.314 198.831 94.7201 205.499 91.7258C215.052 87.457 221.195 78.9814 222.831 67.8332C223.218 65.1607 223.281 62.5499 223.281 47.8754V33.1761L216.076 33.2504C212.105 33.2998 208.783 33.3493 208.708 33.3865C208.471 33.4483 208.496 36.1209 208.821 42.357C209.183 49.5458 209.208 58.3431 208.883 61.523C207.909 70.9142 205.462 75.7149 200.329 78.2762C199.143 78.8701 197.108 79.5382 195.584 79.8476C193.774 80.2187 190.639 80.293 188.879 80.0208C185.57 79.5135 182.997 78.2762 180.862 76.1727C178.19 73.5373 176.704 69.8996 176.329 65.1112C176.254 64.0966 176.204 57.5264 176.204 48.3085V33.1885H168.912H161.632L161.544 48.3703Z" fill="#C60C30"/>
<path d="M208.171 95.4134C208.171 96.2919 207.797 99.2491 207.472 100.932C206.111 107.848 203.014 111.449 197.108 112.934C195.534 113.317 193.674 113.59 191.876 113.676C191.127 113.713 190.153 113.775 189.728 113.812L188.941 113.886V121.137V128.4L189.541 128.363C190.764 128.289 193.674 127.942 195.122 127.707C205.824 125.95 213.091 121.669 217.599 114.468C220.484 109.865 222.319 103.567 222.881 96.4032L222.969 95.2154L220.409 95.1412C218.998 95.0917 215.676 95.0175 213.016 94.9803L208.171 94.8937V95.4134Z" fill="#C60C30"/>
<path d="M229.042 155.1V151.8H230.442V144.2H229.162V145.8H226.102V140.9H238.562V145.8H235.502V144.2H234.222V151.8H235.622V155.1H229.042Z" fill="white"/>
<path d="M225.498 151.78H227.098V155.1H222.758L221.958 152.6H217.218L216.418 155.1H212.178V151.8H213.778L216.438 144.2H214.838V140.9H217.638H221.778L225.498 151.78ZM218.178 149.6H220.998L219.598 145.2L218.178 149.6Z" fill="white"/>
<path d="M200.85 155.1V151.8H202.25V144.2H200.85V140.9H206.03V151.8H207.87V150.2H211.45V155.1H200.85Z" fill="white"/>
<path d="M198.067 151.78H199.667V155.1H195.327L194.527 152.6H189.787L188.987 155.1H184.747V151.8H186.347L189.007 144.2H187.407V140.9H190.207H194.347L198.067 151.78ZM190.747 149.6H193.567L192.167 145.2L190.747 149.6Z" fill="white"/>
<path d="M164.727 155.1V151.8H166.127V144.2H164.727V140.9H171.467L174.147 148.8L176.827 140.9H183.567V144.2H182.167V151.8H183.567V155.1H178.387V146.42L175.447 155.1H172.547L169.607 146.42V155.1H164.727Z" fill="white"/>
<path d="M158.623 143.3V140.5H161.943V143.3H158.623ZM158.623 155.1V147.1H157.323V144.2H161.943V151.8H163.243V155.1H158.623Z" fill="white"/>
<path d="M139.821 155.1V151.8H141.221V144.2H139.821V140.9H146.301C149.821 140.9 152.161 142.94 152.161 145.98C152.161 149.02 149.821 151.06 146.301 151.06H145.001V155.1H139.821ZM145.001 147.76H146.301C147.401 147.76 148.141 147.04 148.141 145.98C148.141 144.92 147.401 144.2 146.301 144.2H145.001V147.76Z" fill="white"/>
<path d="M132.867 155.1V144.2H131.467V140.9H136.647V151.8H138.047V155.1H132.867Z" fill="white"/>
<path d="M120.437 155.1V151.8H121.837V144.2H120.437V140.9H125.617V151.8H127.457V150.2H131.037V155.1H120.437Z" fill="white"/>
<path d="M117.654 151.78H119.254V155.1H114.914L114.114 152.6H109.374L108.574 155.1H104.334V151.8H105.934L108.594 144.2H106.994V140.9H109.794H113.934L117.654 151.78ZM110.334 149.6H113.154L111.754 145.2L110.334 149.6Z" fill="white"/>
<path d="M102.159 151.8H103.759V155.1H100.039L95.9591 148.7V155.1H90.7791V151.8H92.1791V144.2H90.7791V140.9H95.9591V146.96L99.7791 140.9H103.179V144.2H101.579L99.4391 147.66L102.159 151.8Z" fill="white"/>
<path d="M83.6147 151.8H85.2147V155.1H81.4947L77.4147 148.7V155.1H72.2347V151.8H73.6347V144.2H72.2347V140.9H77.4147V146.96L81.2347 140.9H84.6347V144.2H83.0347L80.8947 147.66L83.6147 151.8Z" fill="white"/>
<path d="M66.1304 143.3V140.5H69.4504V143.3H66.1304ZM66.1304 155.1V147.1H64.8304V144.2H69.4504V151.8H70.7505V155.1H66.1304Z" fill="white"/>
<path d="M54.4316 155.1V151.8H55.8316V144.2H54.5516V145.8H51.4916V140.9H63.9516V145.8H60.8916V144.2H59.6116V151.8H61.0116V155.1H54.4316Z" fill="white"/>
<path d="M46.1361 155.6C44.7561 155.6 43.4361 155.12 42.5361 154.34V155.1H40.2361V150.2H43.3961C43.3961 151.54 44.2561 152.44 45.5361 152.44C46.4561 152.44 47.0761 151.86 47.0761 151.1C47.0761 148.68 40.4561 149.86 40.4561 144.82C40.4561 142.18 42.2961 140.4 44.9161 140.4C46.2961 140.4 47.6161 140.9 48.3161 141.64V140.9H50.6161V145.32H47.0561C47.0561 144.26 46.4361 143.56 45.4961 143.56C44.7361 143.56 44.2161 144.02 44.2161 144.68C44.2161 147.06 50.8361 145.66 50.8361 151.06C50.8361 153.84 48.8561 155.6 46.1361 155.6Z" fill="white"/>
<path d="M37.5535 151.78H39.1535V155.1H34.8135L34.0135 152.6H29.2735L28.4735 155.1H24.2335V151.8H25.8335L28.4935 144.2H26.8935V140.9H29.6935H33.8335L37.5535 151.78ZM30.2335 149.6H33.0535L31.6535 145.2L30.2335 149.6Z" fill="white"/>
<path d="M12.905 155.1V151.8H14.305V144.2H12.905V140.9H18.085V151.8H19.925V150.2H23.505V155.1H12.905Z" fill="white"/>
<path d="M0 155.1V151.8H1.4V144.2H0V140.9H6.48C10 140.9 12.34 142.94 12.34 145.98C12.34 149.02 10 151.06 6.48 151.06H5.18V155.1H0ZM5.18 147.76H6.48C7.58 147.76 8.32 147.04 8.32 145.98C8.32 144.92 7.58 144.2 6.48 144.2H5.18V147.76Z" fill="white"/>
</svg>
