<svg width="78" height="48" viewBox="0 0 78 48" fill="none" xmlns="http://www.w3.org/2000/svg">
<path d="M52.4558 0.0325079C49.6228 0.199545 47.2768 0.904814 45.2913 2.18543C42.5426 3.95788 40.9224 6.53768 40.4822 9.83666C40.4214 10.3053 40.4026 12.2309 40.4588 12.4443L40.4916 12.5742H43.1139C45.5629 12.5742 45.7315 12.5696 45.7549 12.4907C45.769 12.4489 45.8439 12.0731 45.9235 11.6555C46.1014 10.7275 46.3965 9.54435 46.5884 9.00612C47.0801 7.60486 47.8106 6.70008 48.8689 6.17113C49.7867 5.72105 50.7701 5.51226 52.5308 5.4009L52.985 5.37306L53.0365 5.11322C53.0927 4.83019 53.1114 0.979053 53.0599 0.357303L53.0271 2.86102e-05L52.8586 0.00930786C52.7649 0.0139484 52.587 0.0232277 52.4558 0.0325079Z" fill="#C60C30"/>
<path d="M10.6069 12.3467C8.15787 12.4905 5.96638 13.2515 4.41173 14.4903C3.92473 14.8801 3.21297 15.6132 2.8524 16.0911C0.674955 19.005 -0.172609 23.2598 0.028746 30.2985C0.056842 31.2822 0.0943035 32.7484 0.113034 33.5558L0.14113 35.0312H2.79621H5.45129L5.48406 32.6742C5.49811 31.3796 5.52621 28.8602 5.54026 27.0738L5.56835 23.8258L5.68074 23.5335C5.68074 23.5335 5.81185 23.0417 5.83995 22.7447C5.92892 21.8678 6.09281 21.3017 6.47679 20.5547C7.29158 18.9678 8.879 17.9053 10.8457 17.6269C11.4685 17.5387 12.6813 17.5991 13.2667 17.7429C14.4701 18.0399 15.3973 18.5549 16.1699 19.353C16.8957 20.1046 17.3734 21.0651 17.5701 22.1462C17.6075 22.355 17.6871 22.6519 17.748 22.8051C17.8136 22.9582 17.8885 23.1994 17.9166 23.3386C17.9494 23.5103 17.9728 25.3199 17.9915 28.8834C18.0055 31.7926 18.029 34.3677 18.043 34.5997L18.0711 35.0312H20.6793H23.2923L23.3251 33.5094C23.3438 32.6742 23.3766 31.375 23.4 30.6233C23.5545 25.8349 23.2923 22.6334 22.5337 20.0118C21.3864 16.054 19.0404 13.6551 15.416 12.7364C14.0112 12.3791 12.3301 12.2399 10.6069 12.3467Z" fill="#C60C30"/>
<path d="M25.554 12.3237C24.683 12.4489 24.4442 12.5649 24.2616 12.964C24.0743 13.3769 24.0462 13.7713 24.0836 15.9521L24.1164 17.9658L24.2147 17.9333C24.4255 17.873 27.0243 17.8498 27.591 17.9055C30.4942 18.1978 32.0442 19.3671 32.6951 21.7705C32.8355 22.2949 32.9807 23.144 33.0463 23.8492C33.1352 24.7819 33.154 26.9162 33.0931 28.9531C33.0416 30.8323 32.962 35.0407 32.976 35.0686C32.9901 35.0825 37.5416 35.217 38.1082 35.217H38.511L38.5531 32.6744C38.6468 26.9255 38.5765 24.7865 38.2206 22.4897C37.2092 16.017 33.9547 12.783 28.0124 12.3422C27.4036 12.3005 25.8209 12.2865 25.554 12.3237Z" fill="#C60C30"/>
<path d="M51.777 12.3468C47.8295 12.6438 45.0339 13.9151 43.1 16.2861C42.4257 17.112 41.6998 18.3323 41.3814 19.1722C40.9459 20.3275 40.576 22.3505 40.3793 24.6844C40.2248 26.48 40.192 27.4544 40.192 29.8115C40.192 32.2104 40.2482 33.4585 40.4121 34.8226L40.4683 35.2866H43.1702C44.6546 35.2866 45.8862 35.2681 45.9096 35.2495C45.9658 35.1938 45.947 31.3937 45.8815 30.1363C45.6286 25.0649 45.8674 22.6568 46.7993 20.8657C47.7873 18.968 49.637 17.9704 52.484 17.7895L52.9804 17.757L53.0085 16.546C53.0272 15.8825 53.0553 14.6529 53.0694 13.8131L53.1022 12.2958L52.6854 12.3004C52.4559 12.3051 52.0486 12.3236 51.777 12.3468Z" fill="#C60C30"/>
<path d="M54.8487 17.9891C54.8066 24.7169 54.8253 25.1206 55.2046 26.7028C56.188 30.8045 59.0678 33.7509 63.1792 34.8691C65.853 35.5929 68.8312 35.3702 71.3318 34.2473C74.914 32.6466 77.2179 29.4682 77.8313 25.2877C77.9765 24.2854 77.9999 23.3064 77.9999 17.8035V12.2912L75.298 12.3191C73.8089 12.3376 72.5633 12.3562 72.5352 12.3701C72.4462 12.3933 72.4556 13.3955 72.5773 15.7341C72.7131 18.4299 72.7225 21.7288 72.6008 22.9213C72.2355 26.443 71.3177 28.2433 69.3931 29.2038C68.9483 29.4265 68.185 29.677 67.6137 29.793C66.9347 29.9322 65.7594 29.9601 65.0991 29.858C63.8582 29.6677 62.8936 29.2038 62.0928 28.415C61.0907 27.4267 60.5335 26.0625 60.393 24.2669C60.3649 23.8864 60.3462 21.4226 60.3462 17.9659V12.2959H57.6115H54.8815L54.8487 17.9891Z" fill="#C60C30"/>
<path d="M72.3339 35.63C72.3339 35.9594 72.1935 37.0683 72.0717 37.6994C71.5613 40.2931 70.4 41.6433 68.1851 42.2001C67.5951 42.3439 66.8974 42.446 66.223 42.4785C65.9421 42.4924 65.5768 42.5156 65.4176 42.5295L65.1226 42.5574V45.2764V48L65.3474 47.9861C65.8063 47.9582 66.8974 47.8283 67.4405 47.7402C71.4536 47.0813 74.1789 45.4759 75.8694 42.7754C76.9511 41.0494 77.6394 38.6877 77.8501 36.0012L77.8829 35.5557L76.923 35.5279C76.3938 35.5093 75.1482 35.4815 74.1508 35.4676L72.3339 35.4351V35.63Z" fill="#C60C30"/>
</svg>
