<svg width="163" height="48" viewBox="0 0 163 48" fill="none" xmlns="http://www.w3.org/2000/svg">
<path d="M21.3314 18.6667V8H-0.00195312V18.6667L21.3314 18.6667Z" fill="#EAAA08"/>
<path d="M21.3309 29.3332C15.4399 29.3332 10.6643 34.1089 10.6643 39.9999L-0.00064994 40.0003L-0.000649936 39.725C0.145943 28.1153 9.56641 18.7403 21.1937 18.667L31.998 18.6675V40.0008H21.3314L21.3309 29.3332Z" fill="#EAAA08"/>
<path d="M42 32.9999V13.3169H47.076V28.5179H55.959V32.9999H42Z" fill="#0A0D12"/>
<path d="M64.3611 33.2699C62.7231 33.2699 61.3551 32.9639 60.2571 32.3519C59.1591 31.7219 58.3311 30.8399 57.7731 29.7059C57.2331 28.5719 56.9631 27.2579 56.9631 25.7639V25.4669C56.9631 23.8829 57.2601 22.5509 57.8541 21.4709C58.4481 20.3729 59.2671 19.5359 60.3111 18.9599C61.3731 18.3839 62.5881 18.0959 63.9561 18.0959C65.4861 18.0959 66.7821 18.3839 67.8441 18.9599C68.9241 19.5179 69.7431 20.3099 70.3011 21.3359C70.8591 22.3439 71.1381 23.5319 71.1381 24.8999V26.8979H61.7961V27.5729C61.7961 28.1849 62.0211 28.6889 62.4711 29.0849C62.9211 29.4809 63.4971 29.6789 64.1991 29.6789C64.8291 29.6789 65.3421 29.5529 65.7381 29.3009C66.1341 29.0309 66.3681 28.6799 66.4401 28.2479H70.9761C70.9221 29.2379 70.6071 30.1109 70.0311 30.8669C69.4551 31.6229 68.6811 32.2169 67.7091 32.6489C66.7371 33.0629 65.6211 33.2699 64.3611 33.2699ZM61.7961 23.8739V24.0089H66.4401V23.8739C66.4401 23.0999 66.2241 22.5329 65.7921 22.1729C65.3601 21.7949 64.8021 21.6059 64.1181 21.6059C63.4341 21.6059 62.8761 21.8039 62.4441 22.1999C62.0121 22.5779 61.7961 23.1359 61.7961 23.8739Z" fill="#0A0D12"/>
<path d="M77.779 33.2699C76.465 33.2699 75.394 32.9729 74.566 32.3789C73.756 31.7849 73.162 30.9479 72.784 29.8679C72.406 28.7699 72.217 27.5009 72.217 26.0609V25.3589C72.217 22.7849 72.721 20.9399 73.729 19.8239C74.737 18.6899 76.087 18.1229 77.779 18.1229C78.697 18.1229 79.525 18.3209 80.263 18.7169C81.019 19.0949 81.577 19.6529 81.937 20.3909H82.153L82.396 18.3659H86.905V32.9999H82.153V31.0019H81.937C81.577 31.7219 81.019 32.2799 80.263 32.6759C79.525 33.0719 78.697 33.2699 77.779 33.2699ZM79.723 29.4089C80.461 29.4089 81.046 29.1929 81.478 28.7609C81.91 28.3289 82.126 27.6989 82.126 26.8709V24.4949C82.126 23.6849 81.91 23.0639 81.478 22.6319C81.046 22.1819 80.461 21.9569 79.723 21.9569C78.949 21.9569 78.346 22.1819 77.914 22.6319C77.5 23.0819 77.293 23.7029 77.293 24.4949V26.9249C77.293 27.6989 77.5 28.3109 77.914 28.7609C78.346 29.1929 78.949 29.4089 79.723 29.4089Z" fill="#0A0D12"/>
<path d="M89.706 37.5089V18.3659H94.215L94.485 20.3909H94.701C95.0611 19.6529 95.6101 19.0949 96.348 18.7169C97.104 18.3209 97.941 18.1229 98.859 18.1229C100.191 18.1229 101.262 18.4199 102.072 19.0139C102.882 19.6079 103.476 20.4539 103.854 21.5519C104.232 22.6319 104.421 23.9009 104.421 25.3589V26.0609C104.421 28.6169 103.917 30.4619 102.909 31.5959C101.901 32.7119 100.551 33.2699 98.859 33.2699C97.941 33.2699 97.104 33.0719 96.348 32.6759C95.6101 32.2799 95.0611 31.7219 94.701 31.0019H94.485V37.5089H89.706ZM96.915 29.4089C97.689 29.4089 98.283 29.1929 98.697 28.7609C99.129 28.3109 99.345 27.6989 99.345 26.9249V24.4949C99.345 23.7029 99.129 23.0819 98.697 22.6319C98.283 22.1819 97.689 21.9569 96.915 21.9569C96.195 21.9569 95.6101 22.1819 95.16 22.6319C94.7281 23.0639 94.512 23.6849 94.512 24.4949V26.8709C94.512 27.6989 94.7281 28.3289 95.16 28.7609C95.6101 29.1929 96.195 29.4089 96.915 29.4089Z" fill="#0A0D12"/>
<path d="M104.944 37.5089V33.7829H110.02V31.4069L104.269 18.3659H109.237L111.829 25.7639L112.261 27.1679H112.396L112.828 25.7639L115.528 18.3659H120.469L114.772 31.4069V34.5659C114.772 35.5559 114.484 36.2939 113.908 36.7799C113.35 37.2659 112.603 37.5089 111.667 37.5089H104.944Z" fill="#0A0D12"/>
<path d="M127.539 33.2699C125.901 33.2699 124.533 32.9639 123.435 32.3519C122.337 31.7219 121.509 30.8399 120.951 29.7059C120.411 28.5719 120.141 27.2579 120.141 25.7639V25.4669C120.141 23.8829 120.438 22.5509 121.032 21.4709C121.626 20.3729 122.445 19.5359 123.489 18.9599C124.551 18.3839 125.766 18.0959 127.134 18.0959C128.664 18.0959 129.96 18.3839 131.022 18.9599C132.102 19.5179 132.921 20.3099 133.479 21.3359C134.037 22.3439 134.316 23.5319 134.316 24.8999V26.8979H124.974V27.5729C124.974 28.1849 125.199 28.6889 125.649 29.0849C126.099 29.4809 126.675 29.6789 127.377 29.6789C128.007 29.6789 128.52 29.5529 128.916 29.3009C129.312 29.0309 129.546 28.6799 129.618 28.2479H134.154C134.1 29.2379 133.785 30.1109 133.209 30.8669C132.633 31.6229 131.859 32.2169 130.887 32.6489C129.915 33.0629 128.799 33.2699 127.539 33.2699ZM124.974 23.8739V24.0089H129.618V23.8739C129.618 23.0999 129.402 22.5329 128.97 22.1729C128.538 21.7949 127.98 21.6059 127.296 21.6059C126.612 21.6059 126.054 21.8039 125.622 22.1999C125.19 22.5779 124.974 23.1359 124.974 23.8739Z" fill="#0A0D12"/>
<path d="M140.957 33.2699C139.643 33.2699 138.572 32.9729 137.744 32.3789C136.934 31.7849 136.34 30.9479 135.962 29.8679C135.584 28.7699 135.395 27.5009 135.395 26.0609V25.3589C135.395 22.7849 135.899 20.9399 136.907 19.8239C137.915 18.6899 139.265 18.1229 140.957 18.1229C141.875 18.1229 142.703 18.3209 143.441 18.7169C144.197 19.0949 144.755 19.6529 145.115 20.3909H145.331L145.574 18.3659H150.083V32.9999H145.331V31.0019H145.115C144.755 31.7219 144.197 32.2799 143.441 32.6759C142.703 33.0719 141.875 33.2699 140.957 33.2699ZM142.901 29.4089C143.639 29.4089 144.224 29.1929 144.656 28.7609C145.088 28.3289 145.304 27.6989 145.304 26.8709V24.4949C145.304 23.6849 145.088 23.0639 144.656 22.6319C144.224 22.1819 143.639 21.9569 142.901 21.9569C142.127 21.9569 141.524 22.1819 141.092 22.6319C140.678 23.0819 140.471 23.7029 140.471 24.4949V26.9249C140.471 27.6989 140.678 28.3109 141.092 28.7609C141.524 29.1929 142.127 29.4089 142.901 29.4089Z" fill="#0A0D12"/>
<path d="M152.884 32.9999V21.9569C152.884 20.8769 153.208 20.0129 153.856 19.3649C154.522 18.6989 155.386 18.3659 156.448 18.3659H162.388V22.1999H157.663V32.9999H152.884Z" fill="#0A0D12"/>
</svg>
