<svg width="15" height="14" viewBox="0 0 15 14" fill="none" xmlns="http://www.w3.org/2000/svg">
<path d="M6.284 0.808751C6.98475 0.211538 8.0155 0.211532 8.71631 0.808757L9.55881 1.52673C9.65887 1.61203 9.78331 1.66358 9.91444 1.67404L11.0179 1.76209C11.9357 1.83533 12.6646 2.56419 12.7378 3.48201L12.8259 4.58543C12.8363 4.71653 12.8878 4.84099 12.9731 4.94109L13.6911 5.78363C14.2884 6.48438 14.2884 7.51513 13.6911 8.21594L12.9731 9.05838C12.8879 9.1585 12.8362 9.283 12.8258 9.41413L12.7378 10.5175C12.6646 11.4354 11.9357 12.1642 11.0179 12.2374L9.91444 12.3254C9.78331 12.3359 9.65887 12.3875 9.55881 12.4728L8.71631 13.1908C8.0155 13.788 6.98475 13.7879 6.28394 13.1908L5.44144 12.4728C5.34134 12.3875 5.2169 12.3359 5.08581 12.3255L3.9824 12.2374C3.06456 12.1641 2.33572 11.4353 2.26248 10.5175L2.17441 9.41413C2.16395 9.283 2.11239 9.15856 2.0271 9.05844L1.30912 8.21588C0.711905 7.51513 0.711899 6.48444 1.30911 5.78363L2.02709 4.94112C2.11239 4.84102 2.16396 4.71653 2.17442 4.58543L2.26247 3.482C2.33571 2.56418 3.06454 1.83534 3.98237 1.7621L5.0858 1.67404C5.21691 1.66358 5.34137 1.61203 5.44147 1.52673L6.284 0.808751ZM7.9055 1.76014C7.67194 1.56108 7.32831 1.56107 7.09475 1.76014L6.25225 2.47812C5.95194 2.73404 5.57855 2.88869 5.18523 2.92008L4.08181 3.00814C3.77587 3.03256 3.53292 3.27549 3.50851 3.58144L3.42045 4.68489C3.38906 5.07819 3.23441 5.45156 2.97849 5.75188L2.26052 6.59438C2.06145 6.82794 2.06144 7.17156 2.26052 7.40513L2.97849 8.24763C3.23441 8.54794 3.38906 8.92138 3.42047 9.31463L3.50852 10.4181C3.53292 10.724 3.77587 10.967 4.08182 10.9914L5.18522 11.0794C5.57852 11.1108 5.95194 11.2655 6.25225 11.5214L7.09475 12.2394C7.32837 12.4384 7.67194 12.4384 7.9055 12.2394L8.74806 11.5214C9.04831 11.2655 9.42169 11.1108 9.815 11.0794L10.9184 10.9914C11.2244 10.9669 11.4674 10.724 11.4917 10.4181L11.5798 9.31463C11.6112 8.92131 11.7658 8.54794 12.0218 8.24769L12.7397 7.40513C12.9389 7.17156 12.9388 6.828 12.7397 6.59438L12.0217 5.75188C11.7658 5.45156 11.6112 5.07818 11.5798 4.68488L11.4917 3.58144C11.4674 3.2755 11.2244 3.03256 10.9184 3.00814L9.815 2.92009C9.42175 2.88871 9.04831 2.73403 8.748 2.47811L7.9055 1.76014ZM9.26775 4.34818L10.1516 5.23206L5.73221 9.6515L4.84833 8.76756L9.26775 4.34818ZM6.39512 5.89494C6.029 6.26106 5.43542 6.26106 5.0693 5.89494C4.70318 5.52888 4.70318 4.93526 5.0693 4.56914C5.43542 4.20303 6.029 4.20303 6.39512 4.56914C6.76125 4.93526 6.76125 5.52888 6.39512 5.89494ZM8.60481 9.4305C8.97094 9.79663 9.5645 9.79663 9.93062 9.4305C10.2967 9.06438 10.2967 8.47081 9.93062 8.10469C9.5645 7.73856 8.97094 7.73856 8.60481 8.10469C8.23869 8.47081 8.23869 9.06438 8.60481 9.4305Z" fill="white"/>
</svg>
