<svg width="24" height="24" viewBox="0 0 24 24" fill="none" xmlns="http://www.w3.org/2000/svg">
<path d="M7.54506 13.909L5.63706 15.8188L8.18226 18.364L18.364 8.1814L15.8188 5.6371L13.9081 7.5451L15.1816 8.8177L13.9081 10.0921L12.6355 8.8186L11.3629 10.0921L12.6355 11.3647L11.3629 12.6373L10.0903 11.3647L8.81676 12.6373L10.0903 13.9099L8.81676 15.1834L7.54506 13.9081V13.909ZM16.4551 3.7273L20.2729 7.5451C20.4416 7.71387 20.5364 7.94275 20.5364 8.1814C20.5364 8.42005 20.4416 8.64892 20.2729 8.8177L8.81766 20.2729C8.64889 20.4416 8.42001 20.5364 8.18136 20.5364C7.94271 20.5364 7.71384 20.4416 7.54506 20.2729L3.72726 16.4551C3.55854 16.2863 3.46375 16.0574 3.46375 15.8188C3.46375 15.5802 3.55854 15.3513 3.72726 15.1825L15.1825 3.7273C15.3512 3.55857 15.5801 3.46379 15.8188 3.46379C16.0574 3.46379 16.2863 3.55857 16.4551 3.7273ZM13.9081 17.7268L15.1816 16.4542L17.1994 18.4729H18.472V17.2003L16.4542 15.1816L17.7268 13.909L20.1001 16.2814V20.1001H16.2823L13.909 17.7268H13.9081ZM6.27246 10.0903L3.72636 7.5451C3.64268 7.46151 3.5763 7.36225 3.53101 7.253C3.48571 7.14374 3.4624 7.02662 3.4624 6.90835C3.4624 6.79007 3.48571 6.67296 3.53101 6.5637C3.5763 6.45444 3.64268 6.35518 3.72636 6.2716L6.27246 3.7264C6.44124 3.55767 6.67011 3.46289 6.90876 3.46289C7.14741 3.46289 7.37629 3.55767 7.54506 3.7264L10.0921 6.2716L8.81766 7.5451L6.90876 5.6353L5.63616 6.9088L7.54506 8.8168L6.27246 10.0903Z" fill="#D02533"/>
</svg>
