<svg width="24" height="24" viewBox="0 0 24 24" fill="none" xmlns="http://www.w3.org/2000/svg">
<path d="M18.8058 12.0872L20.1837 14.4749C21.054 15.9815 20.5374 17.9084 19.0317 18.7778C18.552 19.0541 18.0093 19.1999 17.4567 19.1999H15.6V21.4499L11.1 18.2999L15.6 15.1499V17.3999H17.4558C17.6925 17.3999 17.9256 17.3369 18.1308 17.219C18.777 16.8464 18.9975 16.0202 18.6258 15.3749L17.247 12.9872L18.8058 12.0872ZM7.77355 9.42048L8.25055 14.8925L6.30295 13.7675L5.37505 15.3749C5.25625 15.5801 5.19415 15.8132 5.19415 16.0499C5.19415 16.7951 5.79805 17.3999 6.54415 17.3999H9.29995V19.1999H6.54415C4.80445 19.1999 3.39415 17.7896 3.39415 16.0499C3.39415 15.4973 3.53995 14.9537 3.81625 14.4749L4.74325 12.8666L2.79565 11.7425L7.77265 9.42048H7.77355ZM13.575 3.87198C14.0538 4.14828 14.4516 4.54608 14.7279 5.02488L15.6549 6.63138L17.6043 5.50638L17.1273 10.9793L12.1485 8.65728L14.097 7.53228L13.1691 5.92488C13.0503 5.71968 12.8802 5.54958 12.675 5.43078C12.0297 5.05818 11.2035 5.27958 10.8309 5.92488L9.45205 8.31258L7.89325 7.41258L9.27295 5.02488C10.1424 3.51828 12.0693 3.00168 13.5759 3.87198H13.575Z" fill="#D02533"/>
</svg>
