<svg width="52" height="52" viewBox="0 0 52 52" fill="none" xmlns="http://www.w3.org/2000/svg">
<g filter="url(#filter0_dii_8_4405)">
<rect x="2" y="1" width="48" height="48" rx="10" fill="white"/>
<rect x="2.5" y="1.5" width="47" height="47" rx="9.5" stroke="#E1E4EA"/>
<path d="M32.3 32.2H19.7V33.1C19.7 33.3387 19.6052 33.5677 19.4364 33.7364C19.2676 33.9052 19.0387 34 18.8 34H17.9C17.6613 34 17.4324 33.9052 17.2636 33.7364C17.0948 33.5677 17 33.3387 17 33.1V26.35L15.8813 26.071C15.6867 26.0223 15.5139 25.9099 15.3905 25.7517C15.267 25.5936 15.2 25.3987 15.2 25.1981V24.55C15.2 24.4307 15.2474 24.3162 15.3318 24.2319C15.4162 24.1475 15.5306 24.1 15.65 24.1H17L19.232 18.8908C19.3709 18.5668 19.6019 18.2908 19.8962 18.0969C20.1906 17.9029 20.5355 17.7997 20.888 17.8H31.112C31.4642 17.8001 31.8087 17.9035 32.1027 18.0973C32.3967 18.2912 32.6274 18.5671 32.7662 18.8908L35 24.1H36.35C36.4693 24.1 36.5838 24.1475 36.6682 24.2319C36.7526 24.3162 36.8 24.4307 36.8 24.55V25.1981C36.8 25.3987 36.7329 25.5936 36.6095 25.7517C36.4861 25.9099 36.3133 26.0223 36.1187 26.071L35 26.35V33.1C35 33.3387 34.9052 33.5677 34.7364 33.7364C34.5676 33.9052 34.3387 34 34.1 34H33.2C32.9613 34 32.7324 33.9052 32.5636 33.7364C32.3948 33.5677 32.3 33.3387 32.3 33.1V32.2ZM33.2 30.4001V25.9001H18.8V30.4001H33.2ZM20.1293 24.1H31.8707C32.0177 24.1 32.1624 24.0639 32.2923 23.9949C32.4221 23.926 32.533 23.8263 32.6154 23.7045C32.6978 23.5828 32.7492 23.4427 32.7649 23.2966C32.7807 23.1504 32.7604 23.0027 32.7059 22.8661L31.4 19.6H20.6L19.2941 22.8661C19.2396 23.0027 19.2193 23.1504 19.2351 23.2966C19.2508 23.4427 19.3022 23.5828 19.3846 23.7045C19.467 23.8263 19.5779 23.926 19.7077 23.9949C19.8376 24.0639 19.9823 24.1 20.1293 24.1ZM19.7 26.8C21.7853 26.8 23.1911 27.4796 23.9174 28.8377C23.9541 28.9062 23.9724 28.9831 23.9705 29.0609C23.9687 29.1387 23.9467 29.2146 23.9067 29.2813C23.8667 29.3481 23.8101 29.4033 23.7424 29.4416C23.6747 29.4799 23.5983 29.5001 23.5205 29.5001H20.6C20.3613 29.5001 20.1324 29.4052 19.9636 29.2364C19.7948 29.0677 19.7 28.8387 19.7 28.6V26.8ZM32.3 26.8V28.6C32.3 28.8387 32.2052 29.0677 32.0364 29.2364C31.8676 29.4052 31.6387 29.5001 31.4 29.5001H28.4795C28.4018 29.4999 28.3254 29.4797 28.2579 29.4413C28.1903 29.4029 28.1338 29.3477 28.094 29.281C28.0541 29.2143 28.0322 29.1384 28.0303 29.0607C28.0285 28.983 28.0468 28.9062 28.0835 28.8377C28.808 27.4787 30.2138 26.8 32.3 26.8Z" fill="#D02533"/>
</g>
<defs>
<filter id="filter0_dii_8_4405" x="0" y="0" width="52" height="52" filterUnits="userSpaceOnUse" color-interpolation-filters="sRGB">
<feFlood flood-opacity="0" result="BackgroundImageFix"/>
<feColorMatrix in="SourceAlpha" type="matrix" values="0 0 0 0 0 0 0 0 0 0 0 0 0 0 0 0 0 0 127 0" result="hardAlpha"/>
<feOffset dy="1"/>
<feGaussianBlur stdDeviation="1"/>
<feComposite in2="hardAlpha" operator="out"/>
<feColorMatrix type="matrix" values="0 0 0 0 0.0627451 0 0 0 0 0.0941176 0 0 0 0 0.156863 0 0 0 0.05 0"/>
<feBlend mode="normal" in2="BackgroundImageFix" result="effect1_dropShadow_8_4405"/>
<feBlend mode="normal" in="SourceGraphic" in2="effect1_dropShadow_8_4405" result="shape"/>
<feColorMatrix in="SourceAlpha" type="matrix" values="0 0 0 0 0 0 0 0 0 0 0 0 0 0 0 0 0 0 127 0" result="hardAlpha"/>
<feOffset dy="-2"/>
<feComposite in2="hardAlpha" operator="arithmetic" k2="-1" k3="1"/>
<feColorMatrix type="matrix" values="0 0 0 0 0.0392157 0 0 0 0 0.0496732 0 0 0 0 0.0705882 0 0 0 0.05 0"/>
<feBlend mode="normal" in2="shape" result="effect2_innerShadow_8_4405"/>
<feColorMatrix in="SourceAlpha" type="matrix" values="0 0 0 0 0 0 0 0 0 0 0 0 0 0 0 0 0 0 127 0" result="hardAlpha"/>
<feMorphology radius="1" operator="erode" in="SourceAlpha" result="effect3_innerShadow_8_4405"/>
<feOffset/>
<feComposite in2="hardAlpha" operator="arithmetic" k2="-1" k3="1"/>
<feColorMatrix type="matrix" values="0 0 0 0 0.0392157 0 0 0 0 0.0496732 0 0 0 0 0.0705882 0 0 0 0.18 0"/>
<feBlend mode="normal" in2="effect2_innerShadow_8_4405" result="effect3_innerShadow_8_4405"/>
</filter>
</defs>
</svg>
