<svg width="52" height="52" viewBox="0 0 52 52" fill="none" xmlns="http://www.w3.org/2000/svg">
<g filter="url(#filter0_dii_8_4409)">
<rect x="2" y="1" width="48" height="48" rx="10" fill="white"/>
<rect x="2.5" y="1.5" width="47" height="47" rx="9.5" stroke="#E1E4EA"/>
<path d="M24.6302 24.6688L20.5712 18.304L22.3091 17.8378L28.565 23.6158L33.3008 22.3468C33.6467 22.2542 34.0152 22.3027 34.3252 22.4818C34.6353 22.6609 34.8615 22.9558 34.9541 23.3017C35.0467 23.6475 34.9981 24.016 34.8191 24.3261C34.64 24.6361 34.3451 24.8624 33.9992 24.955L20.5244 28.564L19.826 25.9558L20.0429 25.8973L22.2632 28.0978L19.8998 28.7314C19.706 28.7833 19.5004 28.769 19.3156 28.6908C19.1309 28.6125 18.9776 28.4747 18.8801 28.2994L16.5194 24.046L17.8235 23.6968L20.0429 25.8973L24.6302 24.6679V24.6688ZM18.8 31.3H33.2V33.1H18.8V31.3Z" fill="#D02533"/>
</g>
<defs>
<filter id="filter0_dii_8_4409" x="0" y="0" width="52" height="52" filterUnits="userSpaceOnUse" color-interpolation-filters="sRGB">
<feFlood flood-opacity="0" result="BackgroundImageFix"/>
<feColorMatrix in="SourceAlpha" type="matrix" values="0 0 0 0 0 0 0 0 0 0 0 0 0 0 0 0 0 0 127 0" result="hardAlpha"/>
<feOffset dy="1"/>
<feGaussianBlur stdDeviation="1"/>
<feComposite in2="hardAlpha" operator="out"/>
<feColorMatrix type="matrix" values="0 0 0 0 0.0627451 0 0 0 0 0.0941176 0 0 0 0 0.156863 0 0 0 0.05 0"/>
<feBlend mode="normal" in2="BackgroundImageFix" result="effect1_dropShadow_8_4409"/>
<feBlend mode="normal" in="SourceGraphic" in2="effect1_dropShadow_8_4409" result="shape"/>
<feColorMatrix in="SourceAlpha" type="matrix" values="0 0 0 0 0 0 0 0 0 0 0 0 0 0 0 0 0 0 127 0" result="hardAlpha"/>
<feOffset dy="-2"/>
<feComposite in2="hardAlpha" operator="arithmetic" k2="-1" k3="1"/>
<feColorMatrix type="matrix" values="0 0 0 0 0.0392157 0 0 0 0 0.0496732 0 0 0 0 0.0705882 0 0 0 0.05 0"/>
<feBlend mode="normal" in2="shape" result="effect2_innerShadow_8_4409"/>
<feColorMatrix in="SourceAlpha" type="matrix" values="0 0 0 0 0 0 0 0 0 0 0 0 0 0 0 0 0 0 127 0" result="hardAlpha"/>
<feMorphology radius="1" operator="erode" in="SourceAlpha" result="effect3_innerShadow_8_4409"/>
<feOffset/>
<feComposite in2="hardAlpha" operator="arithmetic" k2="-1" k3="1"/>
<feColorMatrix type="matrix" values="0 0 0 0 0.0392157 0 0 0 0 0.0496732 0 0 0 0 0.0705882 0 0 0 0.18 0"/>
<feBlend mode="normal" in2="effect2_innerShadow_8_4409" result="effect3_innerShadow_8_4409"/>
</filter>
</defs>
</svg>
