<svg width="24" height="24" viewBox="0 0 24 24" fill="none" xmlns="http://www.w3.org/2000/svg">
<path d="M12 2.1001L20.55 7.0501V16.9501L12 21.9001L3.44995 16.9501V7.0501L12 2.1001ZM12 4.18L5.24995 8.0878V15.9124L12 19.8202L18.75 15.9124V8.0878L12 4.18ZM12 15.6001C11.0452 15.6001 10.1295 15.2208 9.45437 14.5457C8.77924 13.8706 8.39995 12.9549 8.39995 12.0001C8.39995 11.0453 8.77924 10.1296 9.45437 9.45451C10.1295 8.77938 11.0452 8.4001 12 8.4001C12.9547 8.4001 13.8704 8.77938 14.5455 9.45451C15.2207 10.1296 15.6 11.0453 15.6 12.0001C15.6 12.9549 15.2207 13.8706 14.5455 14.5457C13.8704 15.2208 12.9547 15.6001 12 15.6001ZM12 13.8001C12.4773 13.8001 12.9352 13.6105 13.2727 13.2729C13.6103 12.9353 13.8 12.4775 13.8 12.0001C13.8 11.5227 13.6103 11.0649 13.2727 10.7273C12.9352 10.3897 12.4773 10.2001 12 10.2001C11.5226 10.2001 11.0647 10.3897 10.7272 10.7273C10.3896 11.0649 10.2 11.5227 10.2 12.0001C10.2 12.4775 10.3896 12.9353 10.7272 13.2729C11.0647 13.6105 11.5226 13.8001 12 13.8001Z" fill="#D02533"/>
</svg>
